<?xml version="1.0" encoding="UTF-8"?>
<svg viewBox="0 0 100 100" width="512" height="512" xmlns="http://www.w3.org/2000/svg">
  
  <g transform="translate(1, -7)">
    
    <g transform="translate(50,50) rotate(-40) translate(-50,-50)">
      <path d="M20,30 h50 a10,10 0 0 1 10,10 v40 a10,10 0 0 1 -10,10 h-50 a10,10 0 0 1 -10,-10 v-40 a10,10 0 0 1 10,-10 z" fill="#1b6Cff"/>
      <path d="M55,30 h15 a10,10 0 0 1 10,10 v15 L55,30 z" fill="#ff8a3d"/>
      <path d="M55,30 v25 h25 L55,30 z" fill="#1455c0" opacity="0.6"/>
    </g>
    
    <path d="M 25 65 L 45 80 L 85 35" fill="none" stroke="#ff8a3d" stroke-width="10" stroke-linecap="round" stroke-linejoin="round"/>
    
  </g>
</svg>