<svg viewBox="0 0 100 100" xmlns="http://www.w3.org/2000/svg">
  <defs>
    <linearGradient id="tagGradient" x1="0%" y1="0%" x2="100%" y2="100%">
      <stop offset="0%" style="stop-color:#4096ff;stop-opacity:1" />
      <stop offset="100%" style="stop-color:#1677ff;stop-opacity:1" />
    </linearGradient>
  </defs>
  
  <g transform="translate(50,50) rotate(-35) translate(-50,-50)">
    <path d="M 25 20 h 50 a 10 10 0 0 1 10 10 v 40 a 10 10 0 0 1 -10 10 h -50 a 10 10 0 0 1 -10 -10 v -40 a 10 10 0 0 1 10 -10 z" fill="url(#tagGradient)" filter="drop-shadow(0px 5px 5px rgba(0,0,0,0.15))"/>
    
    <path d="M 60 20 h 15 a 10 10 0 0 1 10 10 v 15 L 60 20 z" fill="#ff8a3d"/>
    <path d="M 60 20 v 25 h 25 L 60 20 z" fill="#1455c0" opacity="0.45"/>
    
    <circle cx="28" cy="50" r="5.5" fill="#ffffff" filter="drop-shadow(0px 1px 2px rgba(0,0,0,0.2))"/>
  </g>
  
  <path d="M 22 55 L 42 75 L 80 35" fill="none" stroke="#ff8a3d" stroke-width="10" stroke-linecap="round" stroke-linejoin="round" filter="drop-shadow(0px 4px 3px rgba(0,0,0,0.3))"/>
</svg>